<?xml version="1.0" standalone="no"?>
<!DOCTYPE svg PUBLIC "-//W3C//DTD SVG 20010904//EN"
 "http://www.w3.org/TR/2001/REC-SVG-20010904/DTD/svg10.dtd">
<svg version="1.0" xmlns="http://www.w3.org/2000/svg"
 width="200.000000pt" height="200.000000pt" viewBox="0 0 200.000000 200.000000"
 preserveAspectRatio="xMidYMid meet">

<g transform="translate(0.000000,200.000000) scale(0.100000,-0.100000)"
fill="#000000" stroke="none">
<path d="M664 1791 c-23 -10 -53 -34 -67 -52 -39 -53 -392 -1128 -391 -1196 0
-86 60 -154 156 -177 45 -11 116 13 158 53 33 32 44 58 105 241 74 228 88 250
155 250 30 0 43 -6 64 -31 14 -17 26 -40 26 -51 0 -12 -16 -70 -35 -129 -19
-60 -35 -127 -35 -149 0 -99 83 -180 185 -180 108 0 156 48 209 213 49 151 86
183 165 142 41 -21 56 -64 42 -121 -23 -90 24 -182 111 -218 74 -31 147 -15
206 44 27 28 44 71 102 247 39 117 70 220 70 230 0 72 -63 163 -127 184 -89
29 -193 -13 -231 -95 -42 -89 -101 -111 -161 -60 -41 34 -40 59 4 195 39 121
42 153 19 207 -23 56 -62 91 -120 108 -56 16 -86 12 -146 -17 -51 -26 -70 -57
-112 -184 -38 -114 -55 -141 -95 -156 -52 -20 -121 30 -121 87 0 10 30 108 66
218 55 165 65 208 62 248 -6 55 -42 115 -88 141 -47 28 -127 32 -176 8z"/>
</g>
</svg>
